<?xml version="1.0" encoding="UTF-8"?>
<svg version="1.1" xmlns="http://www.w3.org/2000/svg" width="512" height="512">
<path d="M0 0 C1.16879826 -0.00199087 2.33759651 -0.00398174 3.5418129 -0.00603294 C4.81576605 -0.00312028 6.0897192 -0.00020761 7.40227699 0.00279331 C8.7735744 0.00235563 10.14487172 0.00147823 11.51616859 0.00019932 C15.28638031 -0.00204216 19.0565636 0.0019678 22.82677171 0.0069751 C26.95415165 0.01134187 31.08153028 0.00988048 35.2089119 0.00915718 C43.22082726 0.00862551 51.23273142 0.01324297 59.2446439 0.01965851 C68.51200261 0.02685726 77.77935457 0.02765319 87.04671669 0.02844334 C111.51506157 0.03369412 135.98340394 0.04765522 160.45174599 0.06054783 C215.10799599 0.08117283 269.76424599 0.10179783 326.07674599 0.12304783 C326.07674599 129.48304783 326.07674599 258.84304783 326.07674599 392.12304783 C322.11674599 393.11304783 318.15674599 394.10304783 314.07674599 395.12304783 C307.23385215 399.36371443 302.74186506 403.92060445 299.76424599 411.43554783 C297.95878209 421.11939964 299.04766626 428.10614628 304.54940224 436.32226658 C310.29623456 443.67223416 317.11042691 445.62866132 326.07674599 447.12304783 C326.07674599 458.34304783 326.07674599 469.56304783 326.07674599 481.12304783 C283.90985882 481.21354957 241.74299503 481.28512743 199.57602992 481.32730915 C194.59327691 481.33231173 189.6105241 481.33748904 184.62777138 481.34277439 C183.63583131 481.34382363 182.64389125 481.34487287 181.6218924 481.34595391 C165.5788434 481.36334001 149.53585196 481.39486778 133.49283706 481.43165901 C117.02057746 481.46911844 100.54834793 481.49129424 84.07604748 481.49940181 C73.91886443 481.50487922 63.76184412 481.52215387 53.60471118 481.5547137 C46.63136492 481.57592337 39.65810231 481.58223332 32.68472617 481.57705334 C28.6666527 481.57450156 24.64886282 481.5783012 20.6308403 481.59986973 C16.94201323 481.61952508 13.25365688 481.62019697 9.56480683 481.60664341 C7.61937979 481.60418813 5.67395719 481.6212692 3.72861284 481.63937306 C-12.99701018 481.52741978 -27.4370549 476.54819706 -39.73575401 464.93554783 C-53.33135503 450.51715828 -56.55842836 434.02104872 -56.42445946 414.8222208 C-56.42836345 413.2461229 -56.43401262 411.67002855 -56.44123036 410.09394234 C-56.4558449 405.81106186 -56.4458883 401.52855429 -56.43149364 397.24568641 C-56.42030741 392.60830304 -56.43235144 387.97096875 -56.44133568 383.3335886 C-56.45521742 374.26880099 -56.44775002 365.20415336 -56.4326601 356.13937251 C-56.4157411 345.57093893 -56.41901758 335.00253966 -56.42275418 324.43409672 C-56.42862326 305.57249169 -56.41449746 286.71095358 -56.38980675 267.84936619 C-56.36587857 249.56809069 -56.35880771 231.28690453 -56.36929893 213.00561619 C-56.38071948 193.06940649 -56.38262494 173.13323803 -56.36820084 153.19702882 C-56.36667509 151.06961263 -56.36515473 148.94219643 -56.36363983 146.81478024 C-56.36288202 145.76820328 -56.3621242 144.72162633 -56.36134342 143.64333493 C-56.35661019 136.28493069 -56.35844514 128.92654493 -56.36270523 121.56814098 C-56.36764206 112.59728085 -56.36160194 103.62650501 -56.34181093 94.65566412 C-56.33196963 90.08287528 -56.32679958 85.51021453 -56.33470345 80.93741894 C-56.34180167 76.74483846 -56.33485971 72.55251552 -56.31709982 68.3599688 C-56.31308209 66.85013643 -56.31400974 65.34028027 -56.32061868 63.83045701 C-56.39596086 44.99422396 -52.22216621 29.38011277 -38.77091026 15.81836033 C-28.05716782 5.67778106 -14.87083924 -0.00561164 0 0 Z M122.07674599 48.12304783 C122.07674599 75.51304783 122.07674599 102.90304783 122.07674599 131.12304783 C98.97674599 131.12304783 75.87674599 131.12304783 52.07674599 131.12304783 C52.07674599 140.36304783 52.07674599 149.60304783 52.07674599 159.12304783 C75.17674599 159.12304783 98.27674599 159.12304783 122.07674599 159.12304783 C122.07674599 219.51304783 122.07674599 279.90304783 122.07674599 342.12304783 C131.31674599 342.12304783 140.55674599 342.12304783 150.07674599 342.12304783 C150.07674599 281.73304783 150.07674599 221.34304783 150.07674599 159.12304783 C173.17674599 159.12304783 196.27674599 159.12304783 220.07674599 159.12304783 C220.07674599 149.88304783 220.07674599 140.64304783 220.07674599 131.12304783 C196.97674599 131.12304783 173.87674599 131.12304783 150.07674599 131.12304783 C150.07674599 103.73304783 150.07674599 76.34304783 150.07674599 48.12304783 C140.83674599 48.12304783 131.59674599 48.12304783 122.07674599 48.12304783 Z M-12.92325401 403.12304783 C-17.50343604 410.21412854 -18.67324612 416.84052634 -17.92325401 425.12304783 C-16.18021651 432.69471392 -12.23852846 438.58239525 -5.92325401 443.12304783 C0.88817484 447.01114389 6.77816804 447.69116891 14.52317238 447.6040659 C15.645672 447.60748359 16.76817161 447.61090129 17.92468637 447.61442256 C21.66972807 447.62098843 25.41404618 447.59904554 29.15902138 447.57714939 C31.84998622 447.57602063 34.54090733 447.57647936 37.23186684 447.57891941 C43.01692128 447.58101169 48.80179456 447.56851559 54.58680344 447.54596806 C62.95081119 447.51338998 71.31473179 447.50303512 79.67879611 447.49801609 C93.25054188 447.48927252 106.82219121 447.46268247 120.39388466 447.42480564 C133.57356727 447.38806122 146.75322363 447.35976138 159.93294716 447.34277439 C160.74603244 447.3417235 161.55911772 447.3406726 162.39684195 447.33958986 C166.47605753 447.33436952 170.55527329 447.32931474 174.63448918 447.32434225 C208.44864471 447.28290944 242.2626835 447.21248665 276.07674599 447.12304783 C275.72741005 446.17043064 275.37807411 445.21781345 275.01815224 444.23632908 C274.55832932 442.96947003 274.09870437 441.70253913 273.63924599 440.43554783 C273.2940995 439.49678806 273.2940995 439.49678806 272.94198036 438.53906345 C267.2871429 422.88581773 269.60042193 407.09508864 276.07674599 392.12304783 C241.70615627 392.05435848 207.33558225 392.00150725 172.9649387 391.96985184 C168.90577214 391.96609979 164.84660571 391.96221682 160.78743935 391.95825291 C159.97934354 391.95746598 159.17124773 391.95667904 158.33866417 391.95586827 C145.25970693 391.94281975 132.18078932 391.91916896 119.10185558 391.89158944 C105.67839729 391.86351982 92.25495973 391.84686828 78.83147329 391.84078234 C70.55064327 391.83666913 62.26992525 391.82368494 53.98912971 391.79929843 C48.30815573 391.78342202 42.62723952 391.77865178 36.94624496 391.7825437 C33.67018658 391.7844623 30.39436448 391.77990458 27.11833191 391.7654314 C23.56114735 391.75048726 20.00444045 391.75410174 16.44724464 391.76228428 C14.90489752 391.74917649 14.90489752 391.74917649 13.33139187 391.7358039 C2.23359015 391.80471692 -5.46917379 394.7278713 -12.92325401 403.12304783 Z " fill="#000000" transform="translate(116.92325401306152,13.876952171325684)"/>
</svg>
